<svg fill="#000000" xmlns="http://www.w3.org/2000/svg"  viewBox="0 0 128 128" width="128px" height="128px"><path d="M14,127h80c7.2,0,13-5.8,13-13V72.5c0-1.7-1.3-3-3-3s-3,1.3-3,3V81H44V24c0-1.7-1.3-3-3-3H14C6.8,21,1,26.8,1,34v80 C1,121.2,6.8,127,14,127z M101,87v27c0,3.5-2.5,6.4-5.9,6.9L61.2,87H101z M44,87h8.8l34,34H44V87z M38,121H26V87h12V121z M7,34 c0-3.9,3.1-7,7-7h24v19H7V34z M7,52h31v29H7V52z M7,87h13v34h-6c-3.9,0-7-3.1-7-7V87z"/><path d="M77.9,70.9c1.7,1.7,3.9,2.5,6.1,2.5c2.2,0,4.4-0.8,6.1-2.5l16.3-16.3c12.2-12.2,12.2-32.1,0-44.3l-0.3-0.3 c-12.2-12.2-32.1-12.2-44.3,0l-0.3,0.3c-12.2,12.2-12.2,32.1,0,44.3L77.9,70.9z M65.8,14.6l0.3-0.3C71,9.4,77.5,6.9,84,6.9 c6.5,0,13,2.5,17.9,7.4l0.3,0.3c9.9,9.9,9.9,25.9,0,35.8L85.9,66.7c-1,1-2.7,1-3.8,0L65.8,50.4C56,40.5,56,24.4,65.8,14.6z"/><path d="M84,40c1.7,0,3-1.3,3-3V22c0-1.7-1.3-3-3-3s-3,1.3-3,3v15C81,38.7,82.3,40,84,40z"/><path d="M84,52c1.7,0,3-1.3,3-3v-2c0-1.7-1.3-3-3-3s-3,1.3-3,3v2C81,50.7,82.3,52,84,52z"/></svg>