<svg width="22" height="22" viewBox="1 1 20 20" fill="none" xmlns="http://www.w3.org/2000/svg">
<path d="M19.0288 12.0901C18.9998 11.9958 18.9525 11.9082 18.8896 11.8323C18.8267 11.7564 18.7494 11.6936 18.6622 11.6475C18.575 11.6014 18.4796 11.573 18.3814 11.5639C18.2832 11.5547 18.1842 11.565 18.09 11.5942C16.7478 11.9631 15.3317 11.9698 13.986 11.6136C12.6404 11.2573 11.4131 10.5509 10.4292 9.56614C9.4453 8.5814 8.7399 7.35354 8.3848 6.00756C8.02971 4.66158 8.0376 3.24554 8.40768 1.90359C8.44657 1.77384 8.44961 1.63598 8.41647 1.50463C8.38333 1.37329 8.31524 1.25338 8.21944 1.15761C8.12363 1.06185 8.00369 0.993808 7.87234 0.960717C7.74098 0.927626 7.60312 0.930718 7.47338 0.969665C5.89679 1.41107 4.46326 2.2576 3.3154 3.42504C2.16755 4.59248 1.34539 6.04013 0.930725 7.62397C0.516056 9.2078 0.523332 10.8726 0.951829 12.4528C1.38033 14.0329 2.21511 15.4733 3.37312 16.6307C4.53113 17.788 5.97201 18.622 7.5524 19.0496C9.13279 19.4772 10.7976 19.4836 12.3812 19.068C13.9648 18.6524 15.412 17.8295 16.5788 16.681C17.7456 15.5325 18.5913 14.0984 19.0318 12.5216C19.0731 12.3806 19.0721 12.2305 19.0288 12.0901Z" fill="#3B415F"/>
</svg>
