<svg xmlns="http://www.w3.org/2000/svg"  viewBox="0 0 64 64" width="128px" height="128px"><linearGradient id="4kIbyZ5zyxllFZbGQVHiza" x1="46" x2="46" y1="14" y2="22" gradientUnits="userSpaceOnUse"><stop offset="0" stop-color="#8ab4ff"/><stop offset="1" stop-color="#e492ff"/></linearGradient><circle cx="46" cy="18" r="4" fill="url(#4kIbyZ5zyxllFZbGQVHiza)"/><linearGradient id="4kIbyZ5zyxllFZbGQVHizb" x1="32.142" x2="32.142" y1="6" y2="57.717" gradientUnits="userSpaceOnUse"><stop offset="0" stop-color="#1A6DFF"/><stop offset="1" stop-color="#C822FF"/></linearGradient><path fill="url(#4kIbyZ5zyxllFZbGQVHizb)" d="M30.362,57.717c-1.069,0-2.073-0.416-2.828-1.172L7.455,36.466	c-0.756-0.755-1.172-1.759-1.172-2.828c0-1.068,0.416-2.072,1.172-2.828L31.093,7.172C31.849,6.416,32.853,6,33.921,6H54	c2.206,0,4,1.794,4,4v20.079c0,1.068-0.416,2.072-1.172,2.828L33.19,56.545C32.435,57.301,31.431,57.717,30.362,57.717z M33.921,8	c-0.534,0-1.036,0.208-1.414,0.586L8.869,32.224c-0.378,0.378-0.586,0.88-0.586,1.414s0.208,1.036,0.586,1.414l20.079,20.079	c0.756,0.756,2.072,0.756,2.828,0l23.638-23.638C55.792,31.115,56,30.613,56,30.079V10c0-1.103-0.897-2-2-2H33.921z M30.543,53.457	l-20-20l1.414-1.414l20,20L30.543,53.457z M33.543,50.457l-20-20l1.414-1.414l20,20L33.543,50.457z M46,23c-2.757,0-5-2.243-5-5	s2.243-5,5-5s5,2.243,5,5S48.757,23,46,23z M46,15c-1.654,0-3,1.346-3,3s1.346,3,3,3s3-1.346,3-3S47.654,15,46,15z"/></svg>