<svg xmlns="http://www.w3.org/2000/svg"  viewBox="0 0 64 64" width="128px" height="128px"><linearGradient id="VpCyuAjrmU7g4r0uTN_iya" x1="43.42" x2="43.42" y1="16.978" y2="26.734" gradientUnits="userSpaceOnUse" spreadMethod="reflect"><stop offset="0" stop-color="#d9f7ee"/><stop offset="1" stop-color="#2df19b"/></linearGradient><path fill="url(#VpCyuAjrmU7g4r0uTN_iya)" d="M43.42 17.645A4 4 0 1 0 43.42 25.645A4 4 0 1 0 43.42 17.645Z"/><linearGradient id="VpCyuAjrmU7g4r0uTN_iyb" x1="19.209" x2="19.209" y1="7.759" y2="57.099" gradientUnits="userSpaceOnUse" spreadMethod="reflect"><stop offset="0" stop-color="#7DE3C3"/><stop offset="1" stop-color="#0BA360"/></linearGradient><path fill="url(#VpCyuAjrmU7g4r0uTN_iyb)" d="M8.579,33.145c0-0.8,0.31-1.372,0.87-1.943L31.839,9h-2.84L8.04,29.792 c-0.94,0.94-1.46,2.111-1.46,3.442s0.52,2.545,1.46,3.485l18.67,18.658l1.42-1.431L9.449,35.271 C8.889,34.7,8.579,33.945,8.579,33.145z"/><linearGradient id="VpCyuAjrmU7g4r0uTN_iyc" x1="31.445" x2="31.445" y1="7.395" y2="57.089" gradientUnits="userSpaceOnUse" spreadMethod="reflect"><stop offset="0" stop-color="#7DE3C3"/><stop offset="1" stop-color="#0BA360"/></linearGradient><path fill="url(#VpCyuAjrmU7g4r0uTN_iyc)" d="M25.769 28.58L35.718 38.358 37.121 36.932 27.171 27.154z"/><linearGradient id="VpCyuAjrmU7g4r0uTN_iyd" x1="29.005" x2="29.005" y1="7.395" y2="57.089" gradientUnits="userSpaceOnUse" spreadMethod="reflect"><stop offset="0" stop-color="#7DE3C3"/><stop offset="1" stop-color="#0BA360"/></linearGradient><path fill="url(#VpCyuAjrmU7g4r0uTN_iyd)" d="M22.934 31.402L33.663 42.13 35.077 40.716 24.348 29.988z"/><linearGradient id="VpCyuAjrmU7g4r0uTN_iye" x1="26.177" x2="26.177" y1="7.395" y2="57.089" gradientUnits="userSpaceOnUse" spreadMethod="reflect"><stop offset="0" stop-color="#7DE3C3"/><stop offset="1" stop-color="#0BA360"/></linearGradient><path fill="url(#VpCyuAjrmU7g4r0uTN_iye)" d="M20.106 34.231L30.833 44.958 32.248 43.544 21.52 32.817z"/><linearGradient id="VpCyuAjrmU7g4r0uTN_iyf" x1="34.086" x2="34.086" y1="7.759" y2="57.084" gradientUnits="userSpaceOnUse" spreadMethod="reflect"><stop offset="0" stop-color="#7DE3C3"/><stop offset="1" stop-color="#0BA360"/></linearGradient><path fill="url(#VpCyuAjrmU7g4r0uTN_iyf)" d="M57.235,42.612C56.965,42.125,56.443,42,55.871,42h-2.51c-0.192-2-0.88-3.494-1.916-4.789 l3.886-4.184C55.897,32.46,56,31.618,56,30.817V11.645C56,9.991,55.074,9,53.419,9H35.249c-0.802,0-1.556,0.135-2.122,0.701 L11.625,31.113c-1.167,1.17-1.167,3.028,0.001,4.198l18.672,18.65c0.566,0.566,1.32,0.868,2.121,0.868 c0.802,0,1.556-0.318,2.121-0.884l4.268-4.093C40.349,51.083,42.298,52,44.419,52H46v-2h-1.581c-3.859,0-7-3.318-7-7.177 s3.141-6.911,7-6.911c3.519,0,6.432,2.089,6.92,6.089h-2.37c-0.572,0-1.096,0.125-1.365,0.613c-0.262,0.472-0.246,0.938,0.041,1.398 l2.973,4.698c0.383,0.61,1.057,0.952,1.804,0.952c0.745,0,1.418-0.375,1.8-0.984l2.973-4.662 C57.481,43.556,57.497,43.083,57.235,42.612z M44.419,33.645c-1.478,0-2.87,0.365-4.102,0.999L30.005,24.332l-1.414,1.414 L38.62,35.774c-1.954,1.652-3.2,4.117-3.2,6.871c0,2.122,0.742,4.071,1.975,5.611l-4.269,4.268c-0.376,0.378-1.034,0.378-1.413,0 L13.041,33.852c-0.39-0.39-0.39-1.024-0.001-1.414l21.5-21.323C34.73,10.927,34.981,11,35.249,11h18.171 C53.971,11,54,11.093,54,11.645v19.172c0,0.263,0.103,0.521-0.083,0.707l-3.991,4.096C48.385,34.387,46.541,33.645,44.419,33.645z M52.526,47.781c-0.023,0.04-0.188,0.129-0.213,0.087L49.832,44h5.174L52.526,47.781z"/></svg>