<svg fill="#1A1A1A" xmlns="http://www.w3.org/2000/svg"  viewBox="0 0 64 64" width="64px" height="64px"><path d="M50,38a12,12,0,0,0-2.184.209A35.954,35.954,0,0,0,48.963,30H52a1,1,0,0,0,0-2H48.978v0a10.013,10.013,0,0,0,3.827-6.039,7.9,7.9,0,0,0,1.061-.188A23.808,23.808,0,0,1,54.1,35.505a1,1,0,0,0,.691,1.234.986.986,0,0,0,.272.038,1,1,0,0,0,.962-.729,25.806,25.806,0,0,0-.288-14.981A8,8,0,1,0,46.523,8.176,25.636,25.636,0,0,0,31.984,3.041C31.658,3.016,31.33,3,31,3a25.835,25.835,0,0,0-9.365,1.75A11.977,11.977,0,0,0,7.2,4.116,1,1,0,1,0,8.335,5.763,9.987,9.987,0,0,1,22,19.976a6.009,6.009,0,0,0-4.242-5.712,5,5,0,1,0-7.514,0A6.009,6.009,0,0,0,6,19.976,9.953,9.953,0,0,1,5.763,8.335,1,1,0,1,0,4.116,7.2,11.959,11.959,0,0,0,5.784,22.722a25.7,25.7,0,0,0-.061,12.353,1,1,0,0,0,1.945-.466A24.2,24.2,0,0,1,7.03,30h6a34.929,34.929,0,0,0,2.383,12.021C15.272,42.015,15.138,42,15,42a9.949,9.949,0,0,0-3.685.712A24.038,24.038,0,0,1,8.86,38.258a1,1,0,0,0-1.845.772,26.126,26.126,0,0,0,2.51,4.612A9.994,9.994,0,1,0,24.743,54.219a25.489,25.489,0,0,0,13.9-.389A12.013,12.013,0,0,0,50,62c.132,0,.261-.008.39-.017l.158-.009a1,1,0,0,0,.952-1.046,1.017,1.017,0,0,0-1.045-.952l-.2.012c-.085.006-.169.012-.255.012a9.938,9.938,0,0,1-6-2.019V56a4,4,0,0,1,4-4h4a4,4,0,0,1,4,4v1.964a9.954,9.954,0,0,1-2,1.2A1,1,0,1,0,54.8,61,12,12,0,0,0,50,38Zm-4.436.86a12.028,12.028,0,0,0-4.081,2.7c-1.079-.33-2.178-.6-3.293-.824.361-2.469.6-5.081.72-7.689A1,1,0,0,0,37.956,32a1.025,1.025,0,0,0-1.044.954,74.244,74.244,0,0,1-.693,7.428,36.4,36.4,0,0,0-10.443-.013A77.937,77.937,0,0,1,25.015,30H46.963A33.687,33.687,0,0,1,45.564,38.86ZM31.1,52.98c-.068,0-.136,0-.2,0-1.611-.154-3.592-3.991-4.8-10.632a34.357,34.357,0,0,1,9.8.012C34.651,49.183,32.612,52.827,31.1,52.98ZM37.025,28H25.015a77.992,77.992,0,0,1,.763-10.388A36.874,36.874,0,0,0,31,18c.7,0,1.435-.028,2.221-.081A9.953,9.953,0,0,0,37.025,28ZM41,18a2,2,0,1,1,2,2A2,2,0,0,1,41,18Zm0,4h4a2,2,0,0,1,2,2v2.918a7.935,7.935,0,0,1-8,0V24A2,2,0,0,1,41,22Zm8,3.274V24a3.993,3.993,0,0,0-2.688-3.761,4,4,0,1,0-6.624,0A3.993,3.993,0,0,0,37,24v1.274a8,8,0,1,1,12,0ZM40.923,10.22a9.945,9.945,0,0,0-3.783,1.694A23.277,23.277,0,0,0,34.752,5.7,14.732,14.732,0,0,1,40.923,10.22ZM55,19.2a5.893,5.893,0,0,1-.778.38c-.012,0-.025,0-.037.006s-.023.016-.036.021A5.874,5.874,0,0,1,53,19.917,10,10,0,0,0,52.539,17H53a2,2,0,0,1,2,2ZM52,15a1.452,1.452,0,0,1-.387-.055,9.987,9.987,0,0,0-1.1-1.528A1.5,1.5,0,1,1,52,15Zm0-7a5.993,5.993,0,0,1,4.751,9.655,3.993,3.993,0,0,0-1.877-2.167,3.491,3.491,0,1,0-5.987-3.554,10,10,0,0,0-1.955-1.126A5.965,5.965,0,0,1,52,8ZM45.255,9.723c-.1.154-.185.314-.272.476a9.963,9.963,0,0,0-1.677-.183A20.8,20.8,0,0,0,40.62,7.009,24.02,24.02,0,0,1,45.255,9.723Zm-9.8,3.737a10.019,10.019,0,0,0-1.544,2.4C32.837,15.953,31.9,16,31,16a34.822,34.822,0,0,1-4.9-.361C27.335,8.868,29.373,5,31,5,32.274,5,34.123,7.628,35.452,13.46ZM23.2,6.306a23.715,23.715,0,0,1,4.4-1.063,18.43,18.43,0,0,0-2.224,4.947A11.973,11.973,0,0,0,23.2,6.306Zm.131,15.227c-.187,2.12-.3,4.3-.321,6.467H15.028q.028-1.029.117-2.058A11.987,11.987,0,0,0,23.328,21.533ZM14,8a3,3,0,1,1-3,3A3,3,0,0,1,14,8Zm-2,8h4a4,4,0,0,1,4,4v1.981a9.925,9.925,0,0,1-12,0V20A4,4,0,0,1,12,16Zm1.138,9.956q-.082,1.023-.11,2.044H7.034a23.954,23.954,0,0,1,.481-3.919A11.894,11.894,0,0,0,13.138,25.956ZM15.026,30h7.981a81.124,81.124,0,0,0,.816,10.709,33.147,33.147,0,0,0-5.867,1.738c-.067-.021-.137-.034-.2-.053A32.373,32.373,0,0,1,15.026,30ZM11,58.918V56a2,2,0,0,1,2-2h4a2,2,0,0,1,2,2v2.918a7.935,7.935,0,0,1-8,0ZM13,50a2,2,0,1,1,2,2A2,2,0,0,1,13,50Zm8,7.274V56a3.993,3.993,0,0,0-2.688-3.761,4,4,0,1,0-6.624,0A3.993,3.993,0,0,0,9,56v1.274a8,8,0,1,1,12,0Zm-.509-13.622a32,32,0,0,1,3.656-.968c.771,4.258,1.923,7.867,3.434,10.057a23.748,23.748,0,0,1-2.592-.525c0-.073.011-.143.011-.216A9.994,9.994,0,0,0,20.491,43.652Zm13.964,9.077c1.52-2.2,2.657-5.82,3.413-10.022q1.127.229,2.224.535a11.74,11.74,0,0,0-1.928,8.646A23.976,23.976,0,0,1,34.455,52.729ZM50,50a3,3,0,1,1,3-3A3,3,0,0,1,50,50Zm8,5.957a6.009,6.009,0,0,0-4.241-5.693,5,5,0,1,0-7.514,0A6.009,6.009,0,0,0,42,55.976a10.008,10.008,0,1,1,16-.019Z"/></svg>