<svg xmlns="http://www.w3.org/2000/svg"  viewBox="0 0 64 64" width="128px" height="128px" baseProfile="basic"><ellipse cx="32" cy="61" opacity=".3" rx="19" ry="3"/><path fill="#9c34c2" d="M10.994,54.421l-1.414-1.414c-0.781-0.781-0.781-2.047,0-2.828L27.05,32.707l4.243,4.243	L13.822,54.421C13.041,55.202,11.775,55.202,10.994,54.421z"/><path fill="#ffa1ac" d="M22.101,26.343l-8.616,8.616c-1.953,1.953-1.953,5.118,0,7.071l8.485,8.485	c1.953,1.953,5.118,1.953,7.071,0l8.616-8.616L22.101,26.343z"/><path fill="#37d0ee" d="M54.422,10.992l-1.414-1.414c-0.781-0.781-2.047-0.781-2.828,0L32.707,27.05l4.243,4.243	l17.472-17.472C55.203,13.04,55.203,11.773,54.422,10.992z"/><path fill="#008aa9" d="M26.343,22.101l8.638-8.638c1.953-1.953,5.118-1.953,7.071,0l8.485,8.485	c1.953,1.953,1.953,5.118,0,7.071l-8.638,8.638L26.343,22.101z"/><path fill="#37d0ee" d="M39.778,39.778L24.222,24.222c-1.172-1.172-1.172-3.071,0-4.243c1.172-1.172,3.071-1.172,4.243,0	l15.556,15.556c1.172,1.172,1.172,3.071,0,4.243S40.95,40.95,39.778,39.778z"/><path fill="#9c34c2" d="M39.778,39.778L24.222,24.222c-1.172-1.172-3.071-1.172-4.243,0s-1.172,3.071,0,4.243l15.556,15.556	c1.172,1.172,3.071,1.172,4.243,0S40.95,40.95,39.778,39.778z"/><path d="M45.381,27.105L26.147,46.337c-0.344,0.344-0.883,0.386-1.278,0.104 c-1.953-1.393-4.682-1.214-6.435,0.539l3.536,3.536c1.953,1.953,5.118,1.953,7.071,0l6.494-6.494c1.172,1.172,3.071,1.172,4.243,0 c1.172-1.172,1.172-3.071,0-4.243c1.172,1.172,3.071,1.172,4.243,0s1.172-3.071,0-4.243l6.517-6.517 c0.685-0.685,1.115-1.521,1.319-2.4C49.9,25.187,47.147,25.338,45.381,27.105z" opacity=".15"/><path fill="#fff" d="M15.385,38.059c1.279,0,2.56-0.488,3.535-1.464l19.593-19.601l0.005,0.004 c1.953,1.952,5.117,1.952,7.07,0l-3.536-3.536c-1.953-1.953-5.118-1.953-7.071,0l-6.517,6.517c-1.172-1.172-3.071-1.172-4.243,0 c-1.172,1.172-1.172,3.071,0,4.243c-1.172-1.172-3.071-1.172-4.243,0s-1.172,3.071,0,4.243l-6.494,6.494 c-0.577,0.577-0.963,1.266-1.199,1.993C13.194,37.675,14.284,38.059,15.385,38.059z" opacity=".3"/><line x1="33.509" x2="37.456" y1="19.885" y2="15.938" fill="none" stroke="#fff" stroke-linecap="round" stroke-linejoin="round" stroke-miterlimit="10" stroke-width="3"/></svg>