<svg xmlns="http://www.w3.org/2000/svg" width="50.624001" height="66.658997" viewBox="0 0 13.394267 17.63686">
   <path d="M 6.69719,3.27287 C 3.0001,3.27287 0,6.27297 0,9.97006 c 0,1.54549 0.54547,2.9698 1.42429,4.12134 0.0606,0.0909 0.15152,0.18183 0.21213,0.24242 0.0909,0.12123 0.21212,0.24247 0.33334,0.36365 1.27277,1.36366 2.90919,2.39402 4.72743,2.9395 1.81825,-0.54548 3.45468,-1.57584 4.7274,-2.9395 0.12124,-0.12118 0.21212,-0.24242 0.33336,-0.36365 0.0606,-0.0909 0.15153,-0.18183 0.21212,-0.24242 0.87883,-1.12125 1.4243,-2.54555 1.4243,-4.12134 0,-3.69709 -3.00009,-6.69719 -6.69718,-6.69719 z m 0,9.24269 c -1.42429,0 -2.57585,-1.15154 -2.57585,-2.57579 0,-1.42431 1.15156,-2.57585 2.57585,-2.57585 1.4243,0 2.54555,1.15154 2.54555,2.57585 0,1.42425 -1.12125,2.57579 -2.54555,2.57579 z" fill="#FF8A3d" id="path153"></path>
   <path d="M 8.87909,3.12133 C 9.33363,3.03043 9.66698,2.63647 9.66698,2.1516 c 0,-0.54547 -0.45453,-0.96973 -0.96971,-0.96973 -0.15153,0 -0.30306,0.0303 -0.42425,0.0909 C 8.0912,0.54547 7.45478,0 6.69719,0 5.93959,0 5.30323,0.54547 5.15169,1.27277 5.03047,1.21217 4.87895,1.18187 4.72743,1.18187 c -0.54547,0 -0.96973,0.45457 -0.96973,0.96973 0,0.48487 0.33335,0.87882 0.78791,0.96973 C 5.2426,2.8789 5.96989,2.75768 6.72748,2.75768 c 0.7576,0 1.4546,0.12122 2.15161,0.36365 z" fill="#56C271" id="path155"></path>
 
</svg>