<svg xmlns="http://www.w3.org/2000/svg"  viewBox="0 0 64 64" width="128px" height="128px" baseProfile="basic"><line x1="33" x2="27" y1="22" y2="28" fill="none" stroke="orange" stroke-linecap="round" stroke-miterlimit="10" stroke-width="4"/><line x1="42" x2="36" y1="31" y2="37" fill="none" stroke="orange" stroke-linecap="round" stroke-miterlimit="10" stroke-width="4"/><ellipse cx="32" cy="61" opacity=".3" rx="19" ry="3"/><path fill="#9c34c2" d="M10.994,54.421l-1.414-1.414c-0.781-0.781-0.781-2.047,0-2.828L25.05,34.707l4.243,4.243	L13.822,54.421C13.041,55.202,11.775,55.202,10.994,54.421z"/><path fill="#ffa1ac" d="M18.601,29.843l-8.616,8.616c-1.953,1.953-1.953,5.118,0,7.071l8.485,8.485	c1.953,1.953,5.118,1.953,7.071,0l8.616-8.616L18.601,29.843z"/><path fill="#37d0ee" d="M54.422,10.992l-1.414-1.414c-0.781-0.781-2.047-0.781-2.828,0L35.707,24.05l4.243,4.243	l14.472-14.472C55.203,13.04,55.203,11.773,54.422,10.992z"/><path fill="#008aa9" d="M29.843,18.601l8.638-8.638c1.953-1.953,5.118-1.953,7.071,0l8.485,8.485	c1.953,1.953,1.953,5.118,0,7.071l-8.638,8.638L29.843,18.601z"/><path fill="#37d0ee" d="M43.278,36.278L27.722,20.722c-1.172-1.172-1.172-3.071,0-4.243c1.172-1.172,3.071-1.172,4.243,0	l15.556,15.556c1.172,1.172,1.172,3.071,0,4.243S44.45,37.45,43.278,36.278z"/><path fill="#9c34c2" d="M36.278,43.278L20.722,27.722c-1.172-1.172-3.071-1.172-4.243,0s-1.172,3.071,0,4.243l15.556,15.556	c1.172,1.172,3.071,1.172,4.243,0S37.45,44.45,36.278,43.278z"/><line x1="37.009" x2="40.956" y1="16.385" y2="12.438" fill="none" stroke="#fff" stroke-linecap="round" stroke-linejoin="round" stroke-miterlimit="10" stroke-width="3"/></svg>